<?xml version="1.0" encoding="utf-8"?>
<!-- Generator: Adobe Illustrator 21.1.0, SVG Export Plug-In . SVG Version: 6.00 Build 0)  -->
<svg version="1.1" id="Layer_1" xmlns="http://www.w3.org/2000/svg" xmlns:xlink="http://www.w3.org/1999/xlink" x="0px" y="0px"
	 viewBox="0 0 288 288" style="enable-background:new 0 0 288 288;" xml:space="preserve">
<style type="text/css">
	.st0{fill:#F9BE49;}
	.st1{fill:#D4E037;}
	.st2{fill:#007DF7;}
	.st3{fill:#EF275D;}
	.st4{fill:url(#SVGID_1_);}
	.st5{fill:#00184B;}
</style>
<g>
	<path class="st0" d="M161.9,178.4c-0.6,1.6-0.2,2.9,0.8,5c3.4-1.3,5.5-1.7,9-1.6c-0.7-1.5-0.7-2.8-0.2-5.2
		C168,176.5,165.3,177.1,161.9,178.4z"/>
</g>
<g>
	<path class="st1" d="M151.2,170.5c0.3,0.3,0.5,0.6,0.7,1c0.6-0.8,1.1-1.3,1.7-1.8c-0.1-0.5-0.3-0.8-0.6-1.1
		C152.6,169.1,151.9,169.7,151.2,170.5z"/>
</g>
<g>
	<path class="st2" d="M163.6,172.1c1,0.7,1.9,1.1,2.9,1.1c0.5-0.7,0.6-1.2,0.6-1.8c-1.2-0.2-1.9-0.4-2.9-1.1
		C164.3,171.2,164.2,171.7,163.6,172.1z"/>
</g>
<g>
	<path class="st0" d="M96.7,121.1c0.6-1,1.7-1.8,4.5-2.6c-0.5-1.2-1.3-2-2.6-2.8c-2,0.9-3.1,1.5-4.6,3.1
		C95.2,119.3,95.7,119.8,96.7,121.1z"/>
</g>
<g>
	<path class="st2" d="M129.7,120.9c-0.1-0.6-0.3-1-0.7-1.4c-0.4,0.1-0.6,0.2-0.8,0.4c0.4,0.5,0.5,0.8,0.6,1.3
		C129.1,121,129.3,120.9,129.7,120.9z"/>
</g>
<g>
	<path class="st1" d="M145.5,139.9c-0.7,0.2-1,0.7-1.5,1.4c1.7,1,3.1,2.7,4.6,4.7c0.4-0.6,0.8-0.8,1.6-1.1
		C148.7,142.6,147.7,141.5,145.5,139.9z"/>
</g>
<g>
	<path class="st0" d="M115.7,112.5c-1,0.2-1.6,0.8-2.2,1.9c1.7,1.3,2.6,2.2,3.6,4c0.5-0.8,1.2-1.2,2.6-1.7
		C118.5,114.9,117.4,113.8,115.7,112.5z"/>
</g>
<g>
	<path class="st1" d="M167.8,148.8c0.2,1.6-0.2,3.4-2.5,6.6c1.6,0.8,3.1,1,5.3,0.7c1.4-2.7,2-4.4,2.1-7.3
		C170.9,149.4,169.8,149.3,167.8,148.8z"/>
</g>
<g>
	<path class="st0" d="M165.6,202.3c-0.4,0.1-0.8,0.2-1.1,0.4c0,0.3,0.1,0.5,0.3,0.7c0.4-0.3,0.6-0.4,1.1-0.4
		C165.7,202.7,165.6,202.5,165.6,202.3z"/>
</g>
<g>
	<path class="st1" d="M156.7,192.9c-0.2-0.6-0.3-0.9-0.3-1.4c-0.2,0-0.4,0-0.5-0.1c-0.1,0.6,0,1,0.2,1.6
		C156.3,193,156.5,193,156.7,192.9z"/>
</g>
<g>
	<path class="st0" d="M145.3,133.4c2.4-0.6,3.9-0.7,6.5-0.5c0.1-1.2,0.1-2.3-0.5-3.3c-1.7-0.3-3.8-0.3-6.6,0
		C145.6,131.2,145.9,132.1,145.3,133.4z"/>
</g>
<g>
	<path class="st2" d="M127.4,114.9c0.4-0.8,0.6-1.5,0.6-2.2c-0.5-0.3-0.9-0.4-1.4-0.3c0,0.9-0.2,1.4-0.6,2.2
		C126.6,114.4,127,114.5,127.4,114.9z"/>
</g>
<path class="st1" d="M85.5,134.5c2.2,1.3,3.3,2.1,4.4,3.9c0.7-0.7,1.3-1,2-1c-1.1-2.1-2.3-3.2-4.5-4.8"/>
<g>
	<path class="st0" d="M173.4,176.4c0-0.3,0.1-0.5,0.4-0.6c-0.3-0.2-0.6-0.2-1.1-0.3c-0.2,0.2-0.3,0.3-0.3,0.6
		C172.8,176.1,173.1,176.2,173.4,176.4z"/>
</g>
<g>
	<path class="st1" d="M168.1,193.4c0.2,0.3,0.4,0.4,0.8,0.4c0.2-0.3,0.4-0.5,0.4-0.8c-0.3-0.2-0.5-0.5-0.7-0.9
		C168.6,192.6,168.5,192.9,168.1,193.4z"/>
</g>
<g>
	<path class="st2" d="M137.8,137.5c0.1,3.6,0.6,5.8,1.6,8.6c2.2-1,3.4-1.9,4.3-3.1c-1-1.6-1.1-3-1.1-5.2
		C140.7,138.4,139.5,138.2,137.8,137.5z"/>
</g>
<g>
	<path class="st3" d="M166.9,191.1c0.3,0.6,0.8,0.8,1.5,1.2c0.7-1.7,2-3.3,3.6-5c-0.6-0.3-0.9-0.7-1.3-1.3
		C168.9,187.7,168.1,188.8,166.9,191.1z"/>
</g>
<g>
	<path class="st0" d="M155.7,148.8c-1.1,0.9-2,1-3.3,1.1c1.1,2,2.3,3.9,3.2,4.6c1-0.5,1.7-1.1,2.6-2.1
		C157.3,151.6,156.7,150.6,155.7,148.8z"/>
</g>
<g>
	<path class="st2" d="M112.9,133.5c-0.9-2.5-1.2-3.8-0.8-6.1c-1.1,0.1-1.7,0-2.2-0.5c-0.6,2.4-0.4,4.1,0.3,6.8
		C111.1,133.9,112,133.8,112.9,133.5z"/>
</g>
<g>
	<path class="st2" d="M89.4,125.6c1.4,0.6,2,0.9,2.8,1.9c0.4-0.5,0.7-0.7,1-0.7c-0.8-1.1-1.5-1.7-2.9-2.4
		C89.8,124.7,89.6,125.1,89.4,125.6z"/>
</g>
<g>
	<path class="st1" d="M129.7,133.4c-0.1-1.2-0.7-2-2-3c-1.8,1.9-3.1,2.8-5.4,3.8c0.9,0.8,1.3,1.6,1.7,3.4
		C126.3,136.5,127.8,135.2,129.7,133.4z"/>
</g>
<g>
	<path class="st0" d="M162.3,172.6c1.6-0.3,2.7-0.1,4.2,1.2c0.5-2.1,0.4-3.6-0.1-6.3c-1.2-1-2.1-1.1-3.8-0.7
		C162.9,169.1,163,170.8,162.3,172.6z"/>
</g>
<g>
	
		<linearGradient id="SVGID_1_" gradientUnits="userSpaceOnUse" x1="-7698.5396" y1="-7868.9346" x2="-7698.8311" y2="-7870.3267" gradientTransform="matrix(2.6784 2.3675 -2.3675 2.6784 2091.5505 39423.4336)">
		<stop  offset="0" style="stop-color:#920040"/>
		<stop  offset="4.784317e-02" style="stop-color:#AE0052"/>
		<stop  offset="0.119" style="stop-color:#D10069"/>
		<stop  offset="0.1861" style="stop-color:#EA007A"/>
		<stop  offset="0.2469" style="stop-color:#FA0084"/>
		<stop  offset="0.2957" style="stop-color:#FF0087"/>
		<stop  offset="0.3487" style="stop-color:#FF1A8B"/>
		<stop  offset="0.4347" style="stop-color:#FF3F92"/>
		<stop  offset="0.5043" style="stop-color:#FF5696"/>
		<stop  offset="0.5484" style="stop-color:#FF5E97"/>
		<stop  offset="0.5841" style="stop-color:#FF5696"/>
		<stop  offset="0.641" style="stop-color:#FF3F92"/>
		<stop  offset="0.7115" style="stop-color:#FF198B"/>
		<stop  offset="0.7527" style="stop-color:#FF0087"/>
		<stop  offset="0.7936" style="stop-color:#FA0084"/>
		<stop  offset="0.8443" style="stop-color:#EA007A"/>
		<stop  offset="0.9001" style="stop-color:#D10069"/>
		<stop  offset="0.9592" style="stop-color:#AE0053"/>
		<stop  offset="1" style="stop-color:#920040"/>
	</linearGradient>
	<path class="st4" d="M100.3,114.5c-1.2,1.4-1.6,2.3-1.6,4.3c2.8,1.4,4.3,2.4,6.7,4.2c0.3-1.1,0.8-1.7,1.3-2.2
		C103.9,118.8,102.4,117.2,100.3,114.5z"/>
</g>
<g>
	<path class="st3" d="M144.3,126.8c1.1-1.5,2.9-2.6,7.5-3.3c-0.6-1.9-1.7-3.4-3.7-4.9c-3.3,1-5.2,1.9-7.7,4.2
		C142.2,123.7,143.1,124.7,144.3,126.8z"/>
</g>
<g>
	<path class="st2" d="M90,105.3c0.2,0,0.3,0,0.5,0.2c0.2-0.5,0.3-0.8,0.4-1.3c-0.3-0.2-0.4-0.2-0.6-0.2
		C90.3,104.4,90.2,104.8,90,105.3z"/>
</g>
<g>
	<path class="st1" d="M145.7,201.4c0.7,1.2,0.9,2.7,0.1,5.9c1.4,0.1,2.7-0.2,4.3-1.1c0.3-2.5,0.2-4-0.6-6.3
		C148.4,200.9,147.5,201.2,145.7,201.4z"/>
</g>
<g>
	<path class="st1" d="M134.7,132.7c0.3,0,0.6-0.1,0.9-0.3c-0.5-0.8-0.8-1.8-1-3c-0.3,0.2-0.5,0.2-0.9,0.1
		C133.9,130.9,134.1,131.6,134.7,132.7z"/>
</g>
<g>
	<polygon class="st5" points="133.3,106.1 143.3,77.7 138.7,76.2 	"/>
</g>
<g>
	<polygon class="st5" points="153.6,137.7 192,117.7 186.8,111.6 	"/>
</g>
<g>
	<polygon class="st5" points="187.8,189.6 209.8,192.8 210.3,189.2 	"/>
</g>
<g>
	<polygon class="st5" points="168.5,158.2 185.9,156.3 184.8,153.3 	"/>
</g>
</svg>
