<svg width="97" height="117" viewBox="0 0 97 117" fill="none" xmlns="http://www.w3.org/2000/svg">
<path d="M48.4732 117C45.2762 117 42.158 116.015 39.5479 114.181L6.55116 90.9796C4.52732 89.5587 2.87614 87.6762 1.73623 85.4903C0.596308 83.3044 0.000907896 80.8788 -2.72378e-07 78.417V38.4243C0.0027051 35.9606 0.599755 33.5335 1.74113 31.3462C2.88251 29.159 4.53497 27.2752 6.56008 25.8529L39.4676 2.80232C42.0818 0.978727 45.1985 0.000243913 48.3929 0.000243913C51.5873 0.000243913 54.704 0.978727 57.3182 2.80232L90.431 25.9681C92.4595 27.3899 94.1149 29.2745 95.258 31.4636C96.401 33.6527 96.9985 36.0824 97 38.5484V69.2234C96.9976 72.4204 95.718 75.4859 93.4421 77.7465C91.1663 80.0072 88.0802 81.2782 84.8616 81.2806H81.6485V89.2596C81.6467 91.7266 81.0482 94.157 79.9035 96.3463C78.7588 98.5356 77.1013 100.42 75.0706 101.84V101.84L57.3717 114.252C54.7605 116.055 51.6533 117.014 48.4732 117ZM48.4018 8.55609C46.9894 8.55567 45.6114 8.98921 44.4568 9.79728L11.5404 32.8744C10.6462 33.5019 9.91688 34.3335 9.41365 35.2993C8.91042 36.2651 8.64805 37.3368 8.6486 38.4243V78.417C8.64953 79.5042 8.91254 80.5754 9.41565 81.5409C9.91875 82.5065 10.6473 83.3383 11.5404 83.9669L44.5639 107.124C45.7189 107.931 47.0967 108.364 48.5089 108.364C49.9212 108.364 51.299 107.931 52.4539 107.124L70.1527 94.7652C71.0482 94.1362 71.7788 93.3033 72.2835 92.3361C72.7882 91.369 73.0522 90.2958 73.0535 89.2064V81.2274H49.9816C46.763 81.2251 43.677 79.954 41.4011 77.6933C39.1252 75.4327 37.8456 72.3672 37.8432 69.1702V49.6215C37.8456 46.4237 39.1249 43.3573 41.4005 41.0953C43.6762 38.8332 46.7622 37.5602 49.9816 37.5555H69.5547C72.771 37.5648 75.8525 38.8399 78.1243 41.1015C80.3961 43.3631 81.6729 46.4267 81.6753 49.6215V72.6721H84.8795C85.8043 72.6698 86.6906 72.3038 87.3445 71.6542C87.9985 71.0046 88.3669 70.1243 88.3693 69.2056V38.5218C88.3673 37.4326 88.1029 36.3597 87.5983 35.3926C87.0937 34.4256 86.3634 33.5926 85.4685 32.9631L52.3468 9.79728C51.1922 8.98921 49.8142 8.55567 48.4018 8.55609ZM49.9816 46.1374C49.5221 46.1385 49.0674 46.2296 48.6434 46.4053C48.2193 46.581 47.8343 46.838 47.5102 47.1615C47.1862 47.4851 46.9295 47.8688 46.7547 48.2909C46.58 48.713 46.4906 49.1652 46.4918 49.6215V69.2234C46.4989 70.1389 46.8694 71.0148 47.5228 71.6605C48.1763 72.3063 49.0598 72.6698 49.9816 72.6721H73.0178V49.6215C73.0178 48.7051 72.6544 47.8256 72.0062 47.1734C71.358 46.5212 70.4773 46.149 69.5547 46.1374H49.9816Z" fill="#5E4893"/>
</svg>
