<svg width="61" height="62" viewBox="0 0 61 62" fill="none" xmlns="http://www.w3.org/2000/svg">
<rect y="1" width="61" height="61" fill="white" fill-opacity="0.5"/>
<line x1="4.37114e-08" y1="31.5" x2="61" y2="31.5" stroke="black"/>
<line x1="4.5" y1="25" x2="4.5" y2="37" stroke="black"/>
<line x1="57.5" y1="25" x2="57.5" y2="37" stroke="black"/>
<line x1="49.5" y1="25" x2="49.5" y2="37" stroke="black"/>
<line x1="41.5" y1="25" x2="41.5" y2="37" stroke="black"/>
<line x1="20.5" y1="25" x2="20.5" y2="37" stroke="black"/>
<line x1="12.5" y1="25" x2="12.5" y2="37" stroke="black"/>
<line x1="30" y1="0.5" x2="30" y2="61.5" stroke="black"/>
<line x1="36.5" y1="6" x2="24.5" y2="6" stroke="black"/>
<line x1="36.5" y1="57" x2="24.5" y2="57" stroke="black"/>
<line x1="36.5" y1="49" x2="24.5" y2="49" stroke="black"/>
<line x1="36.5" y1="41" x2="24.5" y2="41" stroke="black"/>
<line x1="36.5" y1="22" x2="24.5" y2="22" stroke="black"/>
<line x1="36.5" y1="14" x2="24.5" y2="14" stroke="black"/>
<line x1="34.0962" y1="27.6109" x2="25.6109" y2="36.0962" stroke="black"/>
<line x1="34.3891" y1="36.0962" x2="25.9038" y2="27.6109" stroke="black"/>
</svg>
