<svg width="61" height="61" viewBox="0 0 61 61" fill="none" xmlns="http://www.w3.org/2000/svg">
<rect x="61" y="61" width="61" height="61" transform="rotate(-180 61 61)" fill="white" fill-opacity="0.5"/>
<line x1="61" y1="30.5" x2="3.72727e-06" y2="30.5" stroke="black"/>
<line x1="30.5" y1="30" x2="30.5" y2="-2.18557e-08" stroke="black"/>
<line x1="55.5" y1="37" x2="55.5" y2="25" stroke="black"/>
<line x1="24" y1="20.5" x2="37" y2="20.5" stroke="black"/>
<line x1="24" y1="14.5" x2="37" y2="14.5" stroke="black"/>
<line x1="24" y1="8.5" x2="37" y2="8.5" stroke="black"/>
<line x1="6.5" y1="37" x2="6.5" y2="25" stroke="black"/>
<line x1="13.5" y1="37" x2="13.5" y2="25" stroke="black"/>
<line x1="19.5" y1="37" x2="19.5" y2="25" stroke="black"/>
<line x1="25.6464" y1="35.6464" x2="35.8891" y2="25.4038" stroke="black"/>
<line x1="35.8891" y1="36.3536" x2="25.6465" y2="26.1109" stroke="black"/>
<line x1="41.5" y1="37" x2="41.5" y2="25" stroke="black"/>
<line x1="48.5" y1="37" x2="48.5" y2="25" stroke="black"/>
</svg>
