<svg width="61" height="61" viewBox="0 0 61 61" fill="none" xmlns="http://www.w3.org/2000/svg">
<rect x="61" width="61" height="61" transform="rotate(90 61 0)" fill="white" fill-opacity="0.5"/>
<line x1="24.5" y1="37" x2="24.5" y2="61" stroke="black"/>
<line x1="37.5" y1="37" x2="37.5" y2="61" stroke="black"/>
<line x1="24.5" y1="2.68718e-08" x2="24.5" y2="25" stroke="black"/>
<line x1="37.5" y1="2.68718e-08" x2="37.5" y2="25" stroke="black"/>
<line x1="30.5" y1="9" x2="30.5" y2="3" stroke="black"/>
<line x1="30.5" y1="18" x2="30.5" y2="12" stroke="black"/>
<line x1="30.5" y1="27" x2="30.5" y2="21" stroke="black"/>
<line x1="30.5" y1="41" x2="30.5" y2="35" stroke="black"/>
<line x1="30.5" y1="50" x2="30.5" y2="44" stroke="black"/>
<line x1="30.5" y1="59" x2="30.5" y2="53" stroke="black"/>
<line x1="24" y1="24.5" x2="5.68765e-06" y2="24.5" stroke="black"/>
<line x1="24" y1="37.5" x2="5.68765e-06" y2="37.5" stroke="black"/>
<line x1="61" y1="24.5" x2="37" y2="24.5" stroke="black"/>
<line x1="61" y1="37.5" x2="37" y2="37.5" stroke="black"/>
<line x1="52" y1="30.5" x2="58" y2="30.5" stroke="black"/>
<line x1="43" y1="30.5" x2="49" y2="30.5" stroke="black"/>
<line x1="34" y1="30.5" x2="40" y2="30.5" stroke="black"/>
<line x1="21" y1="30.5" x2="27" y2="30.5" stroke="black"/>
<line x1="12" y1="30.5" x2="18" y2="30.5" stroke="black"/>
<line x1="3.00001" y1="30.5" x2="9.00001" y2="30.5" stroke="black"/>
</svg>
