<svg width="62" height="61" viewBox="0 0 62 61" fill="none" xmlns="http://www.w3.org/2000/svg">
<rect width="61" height="61" fill="white" fill-opacity="0.5"/>
<path d="M23.5 1.5C23.5 1.5 22.5 28.5 28 34C33.5 39.5 61 37.5 61 37.5" stroke="black"/>
<path d="M36.5 1.5C36.5 1.5 35.5833 19 38.5 22.5C41.4167 26 61 24.5 61 24.5" stroke="black"/>
<line x1="30.5" y1="8" x2="30.5" y2="2" stroke="black"/>
<line x1="30.5" y1="17" x2="30.5" y2="11" stroke="black"/>
<line x1="31.6467" y1="25.044" x2="31.0876" y2="20.0803" stroke="black"/>
<line x1="35.6232" y1="31.3286" x2="32.7253" y2="28.0051" stroke="black"/>
<line x1="42.7558" y1="30.8383" x2="38.3464" y2="30.8383" stroke="black"/>
<line x1="52" y1="30.5" x2="46" y2="30.5" stroke="black"/>
<line x1="60" y1="30.5" x2="54" y2="30.5" stroke="black"/>
</svg>
