<svg width="61" height="63" viewBox="0 0 61 63" fill="none" xmlns="http://www.w3.org/2000/svg">
<rect y="62.2698" width="61" height="61" transform="rotate(-90 0 62.2698)" fill="white" fill-opacity="0.5"/>
<path d="M1.5 38.7698C1.5 38.7698 28.5 39.7698 34 34.2698C39.5 28.7698 37.5 1.26985 37.5 1.26985" stroke="black"/>
<path d="M1.5 25.7698C1.5 25.7698 19 26.6865 22.5 23.7698C26 20.8531 24.5 1.26981 24.5 1.26981" stroke="black"/>
<line x1="8" y1="31.7698" x2="2" y2="31.7698" stroke="black"/>
<line x1="17" y1="31.7698" x2="11" y2="31.7698" stroke="black"/>
<line x1="25.044" y1="30.6231" x2="20.0803" y2="31.1822" stroke="black"/>
<line x1="31.3286" y1="26.6467" x2="28.0051" y2="29.5445" stroke="black"/>
<line x1="30.8383" y1="19.514" x2="30.8383" y2="23.9234" stroke="black"/>
<line x1="30.5" y1="10.2698" x2="30.5" y2="16.2698" stroke="black"/>
<line x1="30.5" y1="2.26981" x2="30.5" y2="8.26981" stroke="black"/>
</svg>
