<svg width="63" height="61" viewBox="0 0 63 61" fill="none" xmlns="http://www.w3.org/2000/svg">
<rect x="62.2698" y="61" width="61" height="61" transform="rotate(-180 62.2698 61)" fill="white" fill-opacity="0.5"/>
<path d="M38.7698 59.5C38.7698 59.5 39.7698 32.5 34.2698 27C28.7698 21.5 1.26985 23.5 1.26985 23.5" stroke="black"/>
<path d="M25.7698 59.5C25.7698 59.5 26.6865 42 23.7698 38.5C20.8531 35 1.26981 36.5 1.26981 36.5" stroke="black"/>
<line x1="31.7698" y1="53" x2="31.7698" y2="59" stroke="black"/>
<line x1="31.7698" y1="44" x2="31.7698" y2="50" stroke="black"/>
<line x1="30.6231" y1="35.956" x2="31.1822" y2="40.9197" stroke="black"/>
<line x1="26.6467" y1="29.6714" x2="29.5445" y2="32.9949" stroke="black"/>
<line x1="19.514" y1="30.1617" x2="23.9234" y2="30.1617" stroke="black"/>
<line x1="10.2698" y1="30.5" x2="16.2698" y2="30.5" stroke="black"/>
<line x1="2.26984" y1="30.5" x2="8.26984" y2="30.5" stroke="black"/>
</svg>
