<svg width="61" height="62" viewBox="0 0 61 62" fill="none" xmlns="http://www.w3.org/2000/svg">
<rect x="61" width="61" height="61" transform="rotate(90 61 0)" fill="white" fill-opacity="0.5"/>
<path d="M59.5 23.5C59.5 23.5 32.5 22.5 27 28C21.5 33.5 23.5 61 23.5 61" stroke="black"/>
<path d="M59.5 36.5C59.5 36.5 42 35.5833 38.5 38.5C35 41.4167 36.5 61 36.5 61" stroke="black"/>
<line x1="53" y1="30.5" x2="59" y2="30.5" stroke="black"/>
<line x1="44" y1="30.5" x2="50" y2="30.5" stroke="black"/>
<line x1="35.956" y1="31.6467" x2="40.9197" y2="31.0876" stroke="black"/>
<line x1="29.6714" y1="35.6231" x2="32.9949" y2="32.7253" stroke="black"/>
<line x1="30.1617" y1="42.7558" x2="30.1617" y2="38.3464" stroke="black"/>
<line x1="30.5" y1="52" x2="30.5" y2="46" stroke="black"/>
<line x1="30.5" y1="60" x2="30.5" y2="54" stroke="black"/>
</svg>
