<svg width="61" height="62" viewBox="0 0 61 62" fill="none" xmlns="http://www.w3.org/2000/svg">
<rect y="1" width="61" height="61" fill="white" fill-opacity="0.5"/>
<line x1="4.37114e-08" y1="37.5" x2="61" y2="37.5" stroke="black"/>
<line x1="4.37114e-08" y1="24.5" x2="61" y2="24.5" stroke="black"/>
<line x1="12" y1="31.5" x2="6" y2="31.5" stroke="black"/>
<line x1="21" y1="31.5" x2="15" y2="31.5" stroke="black"/>
<line x1="30" y1="31.5" x2="24" y2="31.5" stroke="black"/>
<line x1="39" y1="31.5" x2="33" y2="31.5" stroke="black"/>
<line x1="48" y1="31.5" x2="42" y2="31.5" stroke="black"/>
<line x1="57" y1="31.5" x2="51" y2="31.5" stroke="black"/>
<line x1="30.5" y1="38" x2="30.5" y2="62" stroke="black"/>
<line x1="30.5" y1="-2.18557e-08" x2="30.5" y2="24" stroke="black"/>
<line x1="37" y1="6.5" x2="25" y2="6.5" stroke="black"/>
<line x1="37" y1="56.5" x2="25" y2="56.5" stroke="black"/>
<line x1="37" y1="49.5" x2="25" y2="49.5" stroke="black"/>
<line x1="37" y1="42.5" x2="25" y2="42.5" stroke="black"/>
<line x1="37" y1="20.5" x2="25" y2="20.5" stroke="black"/>
<line x1="37" y1="13.5" x2="25" y2="13.5" stroke="black"/>
</svg>
