<svg width="63" height="62" viewBox="0 0 63 62" fill="none" xmlns="http://www.w3.org/2000/svg">
<rect x="61.5" y="0.5" width="61" height="61" transform="rotate(90 61.5 0.5)" fill="white" fill-opacity="0.5"/>
<line x1="25" y1="0.5" x2="25" y2="61.5" stroke="black"/>
<line x1="38" y1="0.5" x2="38" y2="61.5" stroke="black"/>
<line x1="31" y1="12.5" x2="31" y2="6.5" stroke="black"/>
<line x1="31" y1="21.5" x2="31" y2="15.5" stroke="black"/>
<line x1="31" y1="30.5" x2="31" y2="24.5" stroke="black"/>
<line x1="31" y1="39.5" x2="31" y2="33.5" stroke="black"/>
<line x1="31" y1="48.5" x2="31" y2="42.5" stroke="black"/>
<line x1="31" y1="57.5" x2="31" y2="51.5" stroke="black"/>
<line x1="24.5" y1="31" x2="0.5" y2="31" stroke="black"/>
<line x1="62.5" y1="31" x2="38.5" y2="31" stroke="black"/>
<line x1="56" y1="37.5" x2="56" y2="25.5" stroke="black"/>
<line x1="6" y1="37.5" x2="6" y2="25.5" stroke="black"/>
<line x1="13" y1="37.5" x2="13" y2="25.5" stroke="black"/>
<line x1="20" y1="37.5" x2="20" y2="25.5" stroke="black"/>
<line x1="42" y1="37.5" x2="42" y2="25.5" stroke="black"/>
<line x1="49" y1="37.5" x2="49" y2="25.5" stroke="black"/>
</svg>
