<svg width="61" height="61" viewBox="0 0 61 61" fill="none" xmlns="http://www.w3.org/2000/svg">
<rect x="61" y="61" width="61" height="61" transform="rotate(-180 61 61)" fill="white" fill-opacity="0.5"/>
<line x1="37" y1="22.5" x2="37" y2="0.499992" stroke="black"/>
<line x1="24" y1="22.5" x2="24" y2="0.499992" stroke="black"/>
<line x1="31" y1="13.5" x2="31" y2="19.5" stroke="black"/>
<line x1="31" y1="4.5" x2="31" y2="10.5" stroke="black"/>
<line x1="37" y1="60.5" x2="37" y2="38.5" stroke="black"/>
<line x1="24" y1="60.5" x2="24" y2="38.5" stroke="black"/>
<line x1="31" y1="51.5" x2="31" y2="57.5" stroke="black"/>
<line x1="31" y1="42.5" x2="31" y2="48.5" stroke="black"/>
<line x1="37" y1="31.5" x2="61" y2="31.5" stroke="black"/>
<line x1="55.5" y1="25" x2="55.5" y2="37" stroke="black"/>
<line x1="48.5" y1="25" x2="48.5" y2="37" stroke="black"/>
<line x1="41.5" y1="25" x2="41.5" y2="37" stroke="black"/>
<line x1="4.37114e-08" y1="31.5" x2="24" y2="31.5" stroke="black"/>
<line x1="18.5" y1="25" x2="18.5" y2="37" stroke="black"/>
<line x1="11.5" y1="25" x2="11.5" y2="37" stroke="black"/>
<line x1="4.5" y1="25" x2="4.5" y2="37" stroke="black"/>
<rect x="39" y="40" width="17" height="18" transform="rotate(-180 39 40)" fill="black"/>
</svg>
