<svg width="63" height="62" viewBox="0 0 63 62" fill="none" xmlns="http://www.w3.org/2000/svg">
<rect x="62.2698" y="62" width="61" height="61" transform="rotate(180 62.2698 62)" fill="white" fill-opacity="0.5"/>
<path d="M25.7698 60.5C25.7698 60.5 26.6864 43 23.7698 39.5C20.8531 36 1.26977 37.5 1.26977 37.5" stroke="black"/>
<path d="M25.7698 1.36533C25.7698 1.36533 26.6864 18.8653 23.7698 22.3653C20.8531 25.8653 1.26978 24.3653 1.26978 24.3653" stroke="black"/>
<line x1="31.7698" y1="54" x2="31.7698" y2="60" stroke="black"/>
<line x1="31.7698" y1="45" x2="31.7698" y2="51" stroke="black"/>
<line x1="31.7698" y1="36" x2="31.7698" y2="42" stroke="black"/>
<line x1="31.7698" y1="27" x2="31.7698" y2="33" stroke="black"/>
<line x1="31.7698" y1="18" x2="31.7698" y2="24" stroke="black"/>
<line x1="31.7698" y1="8" x2="31.7698" y2="14" stroke="black"/>
<line x1="22.514" y1="31.1617" x2="26.9234" y2="31.1617" stroke="black"/>
<line x1="12.2698" y1="31.5" x2="18.2698" y2="31.5" stroke="black"/>
<line x1="2.26981" y1="31.5" x2="8.26981" y2="31.5" stroke="black"/>
<line x1="38.7698" y1="2" x2="38.7698" y2="61" stroke="black"/>
</svg>
