<svg width="62" height="62" viewBox="0 0 62 62" fill="none" xmlns="http://www.w3.org/2000/svg">
<rect width="61" height="61" fill="white" fill-opacity="0.5"/>
<path d="M36.5 1.5C36.5 1.5 35.5834 19 38.5 22.5C41.4167 26 61 24.5 61 24.5" stroke="black"/>
<path d="M36.5 60.6347C36.5 60.6347 35.5834 43.1347 38.5 39.6347C41.4167 36.1347 61 37.6347 61 37.6347" stroke="black"/>
<line x1="30.5" y1="8" x2="30.5" y2="2" stroke="black"/>
<line x1="30.5" y1="17" x2="30.5" y2="11" stroke="black"/>
<line x1="30.5" y1="26" x2="30.5" y2="20" stroke="black"/>
<line x1="30.5" y1="35" x2="30.5" y2="29" stroke="black"/>
<line x1="30.5" y1="44" x2="30.5" y2="38" stroke="black"/>
<line x1="30.5" y1="54" x2="30.5" y2="48" stroke="black"/>
<line x1="39.7558" y1="30.8383" x2="35.3464" y2="30.8383" stroke="black"/>
<line x1="50" y1="30.5" x2="44" y2="30.5" stroke="black"/>
<line x1="60" y1="30.5" x2="54" y2="30.5" stroke="black"/>
<line x1="23.5" y1="60" x2="23.5" y2="1" stroke="black"/>
</svg>
