<svg width="62" height="63" viewBox="0 0 62 63" fill="none" xmlns="http://www.w3.org/2000/svg">
<rect y="62.2698" width="61" height="61" transform="rotate(-90 0 62.2698)" fill="white" fill-opacity="0.5"/>
<path d="M1.5 25.7698C1.5 25.7698 19 26.6865 22.5 23.7698C26 20.8531 24.5 1.26979 24.5 1.26979" stroke="black"/>
<path d="M60.6347 25.7698C60.6347 25.7698 43.1347 26.6865 39.6347 23.7698C36.1347 20.8531 37.6347 1.26979 37.6347 1.26979" stroke="black"/>
<line x1="8" y1="31.7698" x2="2" y2="31.7698" stroke="black"/>
<line x1="17" y1="31.7698" x2="11" y2="31.7698" stroke="black"/>
<line x1="26" y1="31.7698" x2="20" y2="31.7698" stroke="black"/>
<line x1="35" y1="31.7698" x2="29" y2="31.7698" stroke="black"/>
<line x1="44" y1="31.7698" x2="38" y2="31.7698" stroke="black"/>
<line x1="54" y1="31.7698" x2="48" y2="31.7698" stroke="black"/>
<line x1="30.8383" y1="22.514" x2="30.8383" y2="26.9234" stroke="black"/>
<line x1="30.5" y1="12.2698" x2="30.5" y2="18.2698" stroke="black"/>
<line x1="30.5" y1="2.26981" x2="30.5" y2="8.26981" stroke="black"/>
<line x1="60" y1="38.7698" x2="1" y2="38.7698" stroke="black"/>
</svg>
