<svg width="62" height="62" viewBox="0 0 62 62" fill="none" xmlns="http://www.w3.org/2000/svg">
<rect x="62" width="61" height="61" transform="rotate(90 62 0)" fill="white" fill-opacity="0.5"/>
<path d="M60.5 36.5C60.5 36.5 43 35.5833 39.5 38.5C36 41.4167 37.5 61 37.5 61" stroke="black"/>
<path d="M1.36533 36.5C1.36533 36.5 18.8653 35.5833 22.3653 38.5C25.8653 41.4167 24.3653 61 24.3653 61" stroke="black"/>
<line x1="54" y1="30.5" x2="60" y2="30.5" stroke="black"/>
<line x1="45" y1="30.5" x2="51" y2="30.5" stroke="black"/>
<line x1="36" y1="30.5" x2="42" y2="30.5" stroke="black"/>
<line x1="27" y1="30.5" x2="33" y2="30.5" stroke="black"/>
<line x1="18" y1="30.5" x2="24" y2="30.5" stroke="black"/>
<line x1="8" y1="30.5" x2="14" y2="30.5" stroke="black"/>
<line x1="31.1617" y1="39.7558" x2="31.1617" y2="35.3464" stroke="black"/>
<line x1="31.5" y1="50" x2="31.5" y2="44" stroke="black"/>
<line x1="31.5" y1="60" x2="31.5" y2="54" stroke="black"/>
<line x1="2" y1="23.5" x2="61" y2="23.5" stroke="black"/>
</svg>
