<svg width="57" height="54" viewBox="0 0 57 54" fill="none" xmlns="http://www.w3.org/2000/svg">
<path d="M18.7145 10.8715C18.3572 11.0958 18.2691 11.5472 18.3111 11.9795C18.3547 12.4285 18.5421 12.9482 18.8518 13.4418C19.1616 13.9353 19.5482 14.3301 19.9335 14.5646C20.3046 14.7904 20.7494 14.9073 21.1067 14.683C21.464 14.4588 21.5521 14.0074 21.5101 13.5751C21.4665 13.1261 21.2791 12.6063 20.9694 12.1128C20.6596 11.6193 20.273 11.2245 19.8877 10.99C19.5167 10.7642 19.0718 10.6473 18.7145 10.8715Z" stroke="#646464" stroke-width="0.5"/>
<path d="M27.5353 23.045C27.178 23.2692 27.0899 23.7206 27.1319 24.153C27.1755 24.6019 27.3629 25.1217 27.6727 25.6152C27.9824 26.1088 28.369 26.5035 28.7543 26.738C29.1254 26.9638 29.5702 27.0807 29.9275 26.8565C30.2848 26.6322 30.3729 26.1809 30.3309 25.7485C30.2873 25.2996 30.0999 24.7798 29.7902 24.2863C29.4804 23.7927 29.0939 23.3979 28.7085 23.1634C28.3375 22.9376 27.8927 22.8207 27.5353 23.045Z" stroke="#646464" stroke-width="0.5"/>
<path d="M25.0936 21.0356C24.7363 21.2598 24.6481 21.7112 24.6901 22.1435C24.7337 22.5925 24.9211 23.1123 25.2309 23.6058C25.5406 24.0993 25.9272 24.4941 26.3125 24.7286C26.6836 24.9544 27.1284 25.0713 27.4857 24.8471C27.843 24.6228 27.9312 24.1714 27.8892 23.7391C27.8456 23.2901 27.6581 22.7704 27.3484 22.2768C27.0387 21.7833 26.6521 21.3885 26.2668 21.154C25.8957 20.9282 25.4509 20.8113 25.0936 21.0356Z" stroke="#646464" stroke-width="0.5"/>
<path d="M24.3458 17.963C23.9885 18.1872 23.9004 18.6386 23.9424 19.0709C23.986 19.5199 24.1734 20.0397 24.4831 20.5332C24.7929 21.0267 25.1794 21.4215 25.5648 21.656C25.9358 21.8818 26.3807 21.9987 26.738 21.7745C27.0953 21.5502 27.1834 21.0988 27.1414 20.6665C27.0978 20.2175 26.9104 19.6978 26.6006 19.2042C26.2909 18.7107 25.9043 18.3159 25.519 18.0814C25.1479 17.8556 24.7031 17.7387 24.3458 17.963Z" stroke="#646464" stroke-width="0.5"/>
<path d="M21.9041 15.9535C21.5467 16.1778 21.4586 16.6292 21.5006 17.0615C21.5442 17.5105 21.7316 18.0302 22.0414 18.5238C22.3511 19.0173 22.7377 19.4121 23.123 19.6466C23.4941 19.8724 23.9389 19.9893 24.2962 19.7651C24.6535 19.5408 24.7416 19.0894 24.6997 18.6571C24.656 18.2081 24.4686 17.6883 24.1589 17.1948C23.8491 16.7013 23.4626 16.3065 23.0772 16.072C22.7062 15.8462 22.2614 15.7293 21.9041 15.9535Z" stroke="#646464" stroke-width="0.5"/>
<path d="M21.1563 12.8809C20.799 13.1052 20.7108 13.5566 20.7528 13.9889C20.7964 14.4379 20.9839 14.9577 21.2936 15.4512C21.6034 15.9447 21.9899 16.3395 22.3753 16.574C22.7463 16.7998 23.1911 16.9167 23.5484 16.6925C23.9057 16.4682 23.9939 16.0168 23.9519 15.5845C23.9083 15.1355 23.7209 14.6158 23.4111 14.1222C23.1014 13.6287 22.7148 13.2339 22.3295 12.9994C21.9584 12.7736 21.5136 12.6567 21.1563 12.8809Z" stroke="#646464" stroke-width="0.5"/>
<path d="M17.5353 9.045C17.178 9.26925 17.0899 9.72064 17.1319 10.153C17.1755 10.6019 17.3629 11.1217 17.6727 11.6152C17.9824 12.1088 18.369 12.5036 18.7543 12.7381C19.1254 12.9639 19.5702 13.0808 19.9275 12.8565C20.2848 12.6323 20.3729 12.1809 20.3309 11.7485C20.2873 11.2996 20.0999 10.7798 19.7902 10.2863C19.4804 9.79274 19.0939 9.39795 18.7085 9.16346C18.3375 8.93765 17.8927 8.82075 17.5353 9.045Z" stroke="#646464" stroke-width="0.5"/>
<path d="M15.0936 7.03557C14.7363 7.25982 14.6481 7.71121 14.6901 8.14354C14.7337 8.59251 14.9212 9.11228 15.2309 9.60581C15.5406 10.0993 15.9272 10.4941 16.3125 10.7286C16.6836 10.9544 17.1284 11.0713 17.4857 10.8471C17.843 10.6228 17.9312 10.1714 17.8892 9.73911C17.8456 9.29014 17.6582 8.77037 17.3484 8.27684C17.0387 7.78331 16.6521 7.38852 16.2668 7.15403C15.8957 6.92822 15.4509 6.81132 15.0936 7.03557Z" stroke="#646464" stroke-width="0.5"/>
<path d="M14.3458 3.96295C13.9885 4.1872 13.9004 4.6386 13.9424 5.07092C13.986 5.51989 14.1734 6.03966 14.4831 6.53319C14.7929 7.02673 15.1794 7.42151 15.5648 7.65601C15.9358 7.88181 16.3806 7.99872 16.738 7.77447C17.0953 7.55022 17.1834 7.09882 17.1414 6.66649C17.0978 6.21753 16.9104 5.69776 16.6006 5.20422C16.2909 4.71069 15.9043 4.31591 15.519 4.08141C15.1479 3.85561 14.7031 3.7387 14.3458 3.96295Z" stroke="#646464" stroke-width="0.5"/>
<path d="M11.9041 1.95352C11.5468 2.17777 11.4586 2.62917 11.5006 3.06149C11.5442 3.51046 11.7316 4.03023 12.0414 4.52376C12.3511 5.0173 12.7377 5.41208 13.123 5.64658C13.4941 5.87238 13.9389 5.98929 14.2962 5.76504C14.6535 5.54079 14.7417 5.08939 14.6997 4.65706C14.6561 4.2081 14.4686 3.68833 14.1589 3.19479C13.8491 2.70126 13.4626 2.30648 13.0772 2.07198C12.7062 1.84618 12.2614 1.72927 11.9041 1.95352Z" stroke="#646464" stroke-width="0.5"/>
<path d="M28.2831 26.1176C27.9258 26.3418 27.8377 26.7932 27.8796 27.2255C27.9233 27.6745 28.1107 28.1943 28.4204 28.6878C28.7302 29.1813 29.1167 29.5761 29.5021 29.8106C29.8731 30.0364 30.3179 30.1533 30.6752 29.9291C31.0326 29.7048 31.1207 29.2534 31.0787 28.8211C31.0351 28.3722 30.8477 27.8524 30.5379 27.3588C30.2282 26.8653 29.8416 26.4705 29.4563 26.236C29.0852 26.0102 28.6404 25.8933 28.2831 26.1176Z" stroke="#646464" stroke-width="0.5"/>
<path d="M37.1039 38.291C36.7466 38.5153 36.6585 38.9667 36.7005 39.399C36.7441 39.848 36.9315 40.3678 37.2412 40.8613C37.551 41.3548 37.9375 41.7496 38.3229 41.9841C38.6939 42.2099 39.1388 42.3268 39.4961 42.1026C39.8534 41.8783 39.9415 41.4269 39.8995 40.9946C39.8559 40.5456 39.6685 40.0259 39.3587 39.5323C39.049 39.0388 38.6624 38.644 38.2771 38.4095C37.906 38.1837 37.4612 38.0668 37.1039 38.291Z" stroke="#646464" stroke-width="0.5"/>
<path d="M34.6622 36.2816C34.3048 36.5059 34.2167 36.9573 34.2587 37.3896C34.3023 37.8386 34.4897 38.3583 34.7995 38.8519C35.1092 39.3454 35.4958 39.7402 35.8811 39.9747C36.2522 40.2005 36.697 40.3174 37.0543 40.0931C37.4116 39.8689 37.4997 39.4175 37.4578 38.9852C37.4141 38.5362 37.2267 38.0164 36.917 37.5229C36.6072 37.0294 36.2207 36.6346 35.8353 36.4001C35.4643 36.1743 35.0195 36.0574 34.6622 36.2816Z" stroke="#646464" stroke-width="0.5"/>
<path d="M33.9144 33.209C33.5571 33.4333 33.4689 33.8847 33.5109 34.317C33.5545 34.766 33.742 35.2857 34.0517 35.7793C34.3615 36.2728 34.748 36.6676 35.1334 36.9021C35.5044 37.1279 35.9492 37.2448 36.3065 37.0205C36.6638 36.7963 36.752 36.3449 36.71 35.9126C36.6664 35.4636 36.479 34.9438 36.1692 34.4503C35.8595 33.9568 35.4729 33.562 35.0876 33.3275C34.7165 33.1017 34.2717 32.9848 33.9144 33.209Z" stroke="#646464" stroke-width="0.5"/>
<path d="M31.4726 31.1996C31.1153 31.4238 31.0272 31.8752 31.0692 32.3076C31.1128 32.7565 31.3002 33.2763 31.6099 33.7698C31.9197 34.2634 32.3063 34.6582 32.6916 34.8927C33.0627 35.1185 33.5075 35.2354 33.8648 35.0111C34.2221 34.7869 34.3102 34.3355 34.2682 33.9031C34.2246 33.4542 34.0372 32.9344 33.7275 32.4409C33.4177 31.9473 33.0311 31.5526 32.6458 31.3181C32.2748 31.0923 31.8299 30.9753 31.4726 31.1996Z" stroke="#646464" stroke-width="0.5"/>
<path d="M30.7249 28.127C30.3676 28.3513 30.2794 28.8026 30.3214 29.235C30.365 29.6839 30.5524 30.2037 30.8622 30.6972C31.1719 31.1908 31.5585 31.5856 31.9438 31.8201C32.3149 32.0459 32.7597 32.1628 33.117 31.9385C33.4743 31.7143 33.5625 31.2629 33.5205 30.8305C33.4769 30.3816 33.2894 29.8618 32.9797 29.3683C32.67 28.8747 32.2834 28.48 31.8981 28.2455C31.527 28.0197 31.0822 27.9028 30.7249 28.127Z" stroke="#646464" stroke-width="0.5"/>
<path d="M42.636 48.9867C42.2787 49.2109 42.1905 49.6623 42.2325 50.0946C42.2761 50.5436 42.4635 51.0634 42.7733 51.5569C43.083 52.0505 43.4696 52.4452 43.8549 52.6797C44.226 52.9055 44.6708 53.0224 45.0281 52.7982C45.3854 52.5739 45.4736 52.1225 45.4316 51.6902C45.388 51.2413 45.2005 50.7215 44.8908 50.228C44.581 49.7344 44.1945 49.3396 43.8091 49.1051C43.4381 48.8793 42.9933 48.7624 42.636 48.9867Z" stroke="#646464" stroke-width="0.5"/>
<path d="M41.8882 45.9141C41.5309 46.1383 41.4428 46.5897 41.4847 47.022C41.5284 47.471 41.7158 47.9908 42.0255 48.4843C42.3353 48.9779 42.7218 49.3726 43.1072 49.6071C43.4782 49.8329 43.923 49.9498 44.2803 49.7256C44.6377 49.5013 44.7258 49.0499 44.6838 48.6176C44.6402 48.1687 44.4528 47.6489 44.143 47.1554C43.8333 46.6618 43.4467 46.267 43.0614 46.0325C42.6903 45.8067 42.2455 45.6898 41.8882 45.9141Z" stroke="#646464" stroke-width="0.5"/>
<path d="M39.4464 43.9047C39.0891 44.1289 39.001 44.5803 39.043 45.0126C39.0866 45.4616 39.274 45.9814 39.5838 46.4749C39.8935 46.9684 40.2801 47.3632 40.6654 47.5977C41.0365 47.8235 41.4813 47.9404 41.8386 47.7162C42.1959 47.4919 42.284 47.0405 42.242 46.6082C42.1984 46.1592 42.011 45.6395 41.7013 45.1459C41.3915 44.6524 41.005 44.2576 40.6196 44.0231C40.2486 43.7973 39.8038 43.6804 39.4464 43.9047Z" stroke="#646464" stroke-width="0.5"/>
<path d="M38.6987 40.8321C38.3414 41.0563 38.2532 41.5077 38.2952 41.94C38.3388 42.389 38.5262 42.9088 38.836 43.4023C39.1457 43.8958 39.5323 44.2906 39.9176 44.5251C40.2887 44.7509 40.7335 44.8678 41.0908 44.6436C41.4481 44.4193 41.5363 43.9679 41.4943 43.5356C41.4507 43.0866 41.2632 42.5669 40.9535 42.0733C40.6438 41.5798 40.2572 41.185 39.8719 40.9505C39.5008 40.7247 39.056 40.6078 38.6987 40.8321Z" stroke="#646464" stroke-width="0.5"/>
</svg>
