<svg width="35" height="37" viewBox="0 0 35 37" fill="none" xmlns="http://www.w3.org/2000/svg">
<path d="M9.59925 26.406C9.91254 26.6885 10.3708 26.65 10.7753 26.4916C11.1953 26.327 11.6441 26.0048 12.0344 25.5721C12.4246 25.1394 12.6988 24.6597 12.8192 24.225C12.9351 23.8064 12.9261 23.3466 12.6128 23.064C12.2995 22.7815 11.8412 22.82 11.4368 22.9784C11.0168 23.143 10.5679 23.4652 10.1777 23.8979C9.78752 24.3306 9.51328 24.8103 9.3929 25.245C9.27699 25.6636 9.28597 26.1234 9.59925 26.406Z" stroke="#646464" stroke-width="0.5"/>
<path d="M8.33284 29.3036C8.64613 29.5861 9.10444 29.5476 9.50887 29.3892C9.92888 29.2247 10.3777 28.9025 10.7679 28.4697C11.1582 28.037 11.4324 27.5573 11.5528 27.1226C11.6687 26.704 11.6597 26.2442 11.3464 25.9617C11.0331 25.6792 10.5748 25.7176 10.1704 25.876C9.75039 26.0406 9.30154 26.3628 8.91133 26.7955C8.52111 27.2282 8.24687 27.7079 8.12649 28.1426C8.01058 28.5612 8.01956 29.0211 8.33284 29.3036Z" stroke="#646464" stroke-width="0.5"/>
<path d="M5.58114 30.8618C5.89443 31.1443 6.35274 31.1059 6.75718 30.9474C7.17718 30.7829 7.62603 30.4607 8.01624 30.028C8.40645 29.5953 8.6807 29.1156 8.80108 28.6809C8.91699 28.2623 8.90801 27.8024 8.59473 27.5199C8.28144 27.2374 7.82313 27.2759 7.4187 27.4343C6.99869 27.5988 6.54984 27.921 6.15963 28.3538C5.76942 28.7865 5.49517 29.2662 5.37479 29.7009C5.25888 30.1195 5.26786 30.5793 5.58114 30.8618Z" stroke="#646464" stroke-width="0.5"/>
<path d="M4.31474 33.7594C4.62802 34.042 5.08633 34.0035 5.49077 33.8451C5.91077 33.6805 6.35962 33.3583 6.74983 32.9256C7.14005 32.4929 7.41429 32.0132 7.53467 31.5785C7.65058 31.1599 7.6416 30.7 7.32832 30.4175C7.01503 30.135 6.55672 30.1735 6.15229 30.3319C5.73228 30.4965 5.28343 30.8187 4.89322 31.2514C4.50301 31.6841 4.22876 32.1638 4.10839 32.5985C3.99247 33.0171 4.00145 33.4769 4.31474 33.7594Z" stroke="#646464" stroke-width="0.5"/>
<path d="M1.56304 35.3177C1.87632 35.6002 2.33463 35.5618 2.73907 35.4033C3.15907 35.2388 3.60792 34.9166 3.99813 34.4838C4.38835 34.0511 4.66259 33.5715 4.78297 33.1367C4.89888 32.7181 4.8899 32.2583 4.57662 31.9758C4.26333 31.6933 3.80502 31.7317 3.40059 31.8902C2.98058 32.0547 2.53173 32.3769 2.14152 32.8096C1.75131 33.2424 1.47706 33.722 1.35669 34.1567C1.24077 34.5754 1.24975 35.0352 1.56304 35.3177Z" stroke="#646464" stroke-width="0.5"/>
<path d="M12.351 24.8477C12.6642 25.1302 13.1225 25.0918 13.527 24.9333C13.947 24.7688 14.3958 24.4466 14.786 24.0139C15.1763 23.5811 15.4505 23.1015 15.5709 22.6667C15.6868 22.2481 15.6778 21.7883 15.3645 21.5058C15.0512 21.2233 14.5929 21.2617 14.1885 21.4202C13.7685 21.5847 13.3196 21.9069 12.9294 22.3396C12.5392 22.7724 12.265 23.252 12.1446 23.6868C12.0287 24.1054 12.0377 24.5652 12.351 24.8477Z" stroke="#646464" stroke-width="0.5"/>
<path d="M21.6536 13.0383C21.9669 13.3208 22.4252 13.2824 22.8296 13.124C23.2496 12.9594 23.6985 12.6372 24.0887 12.2045C24.4789 11.7718 24.7531 11.2921 24.8735 10.8574C24.9894 10.4388 24.9804 9.97893 24.6672 9.69643C24.3539 9.41392 23.8956 9.45237 23.4911 9.6108C23.0711 9.77534 22.6223 10.0975 22.2321 10.5303C21.8418 10.963 21.5676 11.4427 21.4472 11.8774C21.3313 12.296 21.3403 12.7558 21.6536 13.0383Z" stroke="#646464" stroke-width="0.5"/>
<path d="M20.3872 15.936C20.7005 16.2185 21.1588 16.18 21.5632 16.0216C21.9832 15.857 22.4321 15.5348 22.8223 15.1021C23.2125 14.6694 23.4867 14.1897 23.6071 13.755C23.723 13.3364 23.714 12.8766 23.4007 12.594C23.0875 12.3115 22.6292 12.35 22.2247 12.5084C21.8047 12.673 21.3559 12.9952 20.9656 13.4279C20.5754 13.8606 20.3012 14.3403 20.1808 14.775C20.0649 15.1936 20.0739 15.6534 20.3872 15.936Z" stroke="#646464" stroke-width="0.5"/>
<path d="M17.6355 17.4942C17.9488 17.7767 18.4071 17.7383 18.8115 17.5798C19.2315 17.4153 19.6804 17.0931 20.0706 16.6604C20.4608 16.2276 20.735 15.748 20.8554 15.3132C20.9713 14.8946 20.9623 14.4348 20.6491 14.1523C20.3358 13.8698 19.8775 13.9082 19.473 14.0667C19.053 14.2312 18.6042 14.5534 18.214 14.9861C17.8237 15.4189 17.5495 15.8985 17.4291 16.3333C17.3132 16.7519 17.3222 17.2117 17.6355 17.4942Z" stroke="#646464" stroke-width="0.5"/>
<path d="M16.3691 20.3918C16.6823 20.6743 17.1407 20.6359 17.5451 20.4774C17.9651 20.3129 18.4139 19.9907 18.8042 19.558C19.1944 19.1253 19.4686 18.6456 19.589 18.2109C19.7049 17.7923 19.6959 17.3324 19.3826 17.0499C19.0694 16.7674 18.611 16.8059 18.2066 16.9643C17.7866 17.1288 17.3378 17.451 16.9475 17.8838C16.5573 18.3165 16.2831 18.7962 16.1627 19.2309C16.0468 19.6495 16.0558 20.1093 16.3691 20.3918Z" stroke="#646464" stroke-width="0.5"/>
<path d="M13.6174 21.9501C13.9306 22.2326 14.389 22.1941 14.7934 22.0357C15.2134 21.8712 15.6622 21.549 16.0525 21.1162C16.4427 20.6835 16.7169 20.2038 16.8373 19.7691C16.9532 19.3505 16.9442 18.8907 16.6309 18.6082C16.3177 18.3257 15.8593 18.3641 15.4549 18.5225C15.0349 18.6871 14.5861 19.0093 14.1958 19.442C13.8056 19.8747 13.5314 20.3544 13.411 20.7891C13.2951 21.2077 13.3041 21.6676 13.6174 21.9501Z" stroke="#646464" stroke-width="0.5"/>
<path d="M30.4324 4.79627C30.7457 5.07877 31.204 5.04032 31.6085 4.88189C32.0285 4.71736 32.4773 4.39514 32.8675 3.96242C33.2577 3.52969 33.532 3.05003 33.6524 2.61531C33.7683 2.1967 33.7593 1.73687 33.446 1.45436C33.1327 1.17185 32.6744 1.2103 32.27 1.36874C31.85 1.53327 31.4011 1.85548 31.0109 2.28821C30.6207 2.72093 30.3465 3.2006 30.2261 3.63532C30.1102 4.05393 30.1192 4.51376 30.4324 4.79627Z" stroke="#646464" stroke-width="0.5"/>
<path d="M27.6807 6.35452C27.994 6.63703 28.4523 6.59858 28.8568 6.44015C29.2768 6.27561 29.7256 5.9534 30.1158 5.52068C30.506 5.08795 30.7803 4.60829 30.9007 4.17357C31.0166 3.75496 31.0076 3.29512 30.6943 3.01262C30.381 2.73011 29.9227 2.76856 29.5183 2.927C29.0983 3.09153 28.6494 3.41374 28.2592 3.84647C27.869 4.27919 27.5948 4.75885 27.4744 5.19358C27.3585 5.61219 27.3675 6.07202 27.6807 6.35452Z" stroke="#646464" stroke-width="0.5"/>
<path d="M26.4143 9.25214C26.7276 9.53464 27.1859 9.49619 27.5904 9.33776C28.0104 9.17323 28.4592 8.85102 28.8494 8.41829C29.2396 7.98557 29.5139 7.5059 29.6343 7.07118C29.7502 6.65257 29.7412 6.19274 29.4279 5.91023C29.1146 5.62773 28.6563 5.66618 28.2519 5.82461C27.8319 5.98914 27.383 6.31135 26.9928 6.74408C26.6026 7.1768 26.3284 7.65647 26.208 8.09119C26.0921 8.5098 26.101 8.96963 26.4143 9.25214Z" stroke="#646464" stroke-width="0.5"/>
<path d="M23.6626 10.8104C23.9759 11.0929 24.4342 11.0545 24.8387 10.896C25.2587 10.7315 25.7075 10.4093 26.0977 9.97655C26.4879 9.54382 26.7622 9.06416 26.8826 8.62944C26.9985 8.21083 26.9895 7.751 26.6762 7.46849C26.3629 7.18598 25.9046 7.22443 25.5002 7.38287C25.0802 7.5474 24.6313 7.86961 24.2411 8.30234C23.8509 8.73506 23.5767 9.21473 23.4563 9.64945C23.3404 10.0681 23.3493 10.5279 23.6626 10.8104Z" stroke="#646464" stroke-width="0.5"/>
</svg>
