<svg width="35" height="43" viewBox="0 0 35 43" fill="none" xmlns="http://www.w3.org/2000/svg">
<path d="M26 10.5C25.6 10.5 26.1667 7.83333 26.5 6.5C21.7 7.3 11.5 2.83333 7 0.5C6.66667 1.16667 6 2.9 6 4.5C6 6.1 6.66667 7.83333 7 8.5C6.5 9.16667 5.2 10.5 4 10.5C2.5 10.5 0.500002 12 0.500002 12.5V17.5C0.500002 18 2 20.5 3 21.5C3.8 22.3 2.66667 24.1667 2 25C3 25.6667 5 27.2 5 28C5 29 6.5 31.5 7.5 31.5C8.3 31.5 9.83334 33.1667 10.5 34L14.5 35C14.6667 35.6667 15.3 37.3 16.5 38.5C17.7 39.7 20 39.6667 21 39.5V41.5C21.1667 42 21.8 43 23 43C24.5 43 30 40 30 38.5C30 37.3 31.3333 33.3333 32 31.5L33.5 29L34.5 24C34.1667 22.6667 33.2 19.9 32 19.5C30.8 19.1 31.5 17 32 16L34.5 15.5C34.3333 15 33.7 13.9 32.5 13.5C31.3 13.1 29.3333 10.6667 28.5 9.5C27.8333 9.83333 26.4 10.5 26 10.5Z" fill="#D6CAC0"/>
<mask id="mask0" mask-type="alpha" maskUnits="userSpaceOnUse" x="0" y="0" width="35" height="43">
<path d="M26 10.5C25.6 10.5 26.1667 7.83333 26.5 6.5C21.7 7.3 11.5 2.83333 7 0.5C6.66667 1.16667 6 2.9 6 4.5C6 6.1 6.66667 7.83333 7 8.5C6.5 9.16667 5.2 10.5 4 10.5C2.5 10.5 0.500002 12 0.500002 12.5V17.5C0.500002 18 2 20.5 3 21.5C3.8 22.3 2.66667 24.1667 2 25C3 25.6667 5 27.2 5 28C5 29 6.5 31.5 7.5 31.5C8.3 31.5 9.83334 33.1667 10.5 34L14.5 35C14.6667 35.6667 15.3 37.3 16.5 38.5C17.7 39.7 20 39.6667 21 39.5V41.5C21.1667 42 21.8 43 23 43C24.5 43 30 40 30 38.5C30 37.3 31.3333 33.3333 32 31.5L33.5 29L34.5 24C34.1667 22.6667 33.2 19.9 32 19.5C30.8 19.1 31.5 17 32 16L34.5 15.5C34.3333 15 33.7 13.9 32.5 13.5C31.3 13.1 29.3333 10.6667 28.5 9.5C27.8333 9.83333 26.4 10.5 26 10.5Z" fill="#D6CAC0"/>
</mask>
<g mask="url(#mask0)">
<path d="M9.5 24C8.7 26.4 4.5 28 2.5 28.5L12.5 43L27.5 50L36.5 41.5L38.5 27.5V14L29 8C27.5 8.66667 24.4 10.2 24 11C23.5 12 20.5 15.5 19 16.5C17.5 17.5 17.5 20.5 17.5 23C17.5 25 16.8333 26.1667 16.5 26.5C15.5 26.5 13.5 26.2 13.5 25C12.3 25 12.3333 22 12.5 20.5C11.8333 20.6667 10.3 21.6 9.5 24Z" fill="#161616"/>
</g>
</svg>
