<svg width="42" height="53" viewBox="0 0 42 53" fill="none" xmlns="http://www.w3.org/2000/svg">
<path d="M40 8C36.8 8.4 16.3333 2.83333 6.5 0C1.3 9.2 -2.38419e-06 19.5 -2.38419e-06 23.5C0.499998 27.6667 1.6 36.4 2 38C2.4 39.6 8.5 43.6667 11.5 45.5C11.8333 47.6667 12.6 51.6 13 50C13.5 48 33.5 55.5 36.5 52C39.5 48.5 40 29.5 38.5 25.5C37 21.5 36.5 14 36.5 12C36.5 10 44 7.5 40 8Z" fill="#F1ECD3"/>
<line x1="4.42874" y1="3.74275" x2="7.42874" y2="8.74275" stroke="#DFDABE"/>
<line x1="10.3841" y1="14.6799" x2="20.3841" y2="26.6799" stroke="#DFDABE"/>
<line x1="7.42513" y1="15.7368" x2="20.4251" y2="36.7368" stroke="#DFDABE"/>
<line x1="4.43625" y1="17.7557" x2="18.4363" y2="42.7557" stroke="#DFDABE"/>
</svg>
