<svg width="106" height="86" viewBox="0 0 106 86" fill="none" xmlns="http://www.w3.org/2000/svg">
<path d="M54.5229 17.6664C53.3401 16.9998 50.8758 16.2777 49.7915 16C49.7915 16.5555 49.2001 17.833 46.8344 18.4995C43.8772 19.3327 40.033 23.7763 40.033 25.165C40.033 26.5536 40.3287 27.3868 40.033 29.0531C39.7373 30.7195 41.5115 38.2181 42.103 36.8295C42.5761 35.7186 43.6801 35.0705 44.173 34.8854L54.5229 36.8295H60.4372C60.4372 35.3483 60.792 31.9415 62.2114 30.164C63.9857 27.9422 62.2114 26.8313 62.2114 25.165C63.9857 23.2209 60.4372 19.8882 60.4372 18.4995C60.4372 17.3886 56.4943 16.3703 54.5229 16L57.48 18.4995C56.9872 18.4995 55.7058 18.3329 54.5229 17.6664Z" fill="#161616"/>
<path d="M56.0979 42.2854C55.3762 40.1945 56.3986 35.4124 57 33.2828C52.2891 32.3148 43.1079 30.9595 44.0701 33.2828C45.0323 35.6061 45.2729 41.2206 45.2729 43.7375C49.1819 44.1247 56.8196 44.3764 56.0979 42.2854Z" fill="#D6CAC0"/>
<path d="M31.641 39.3035C29.3407 38.5996 21.6728 34.9043 18.1264 33.1446C15.1359 31.6852 12.0879 25.1068 10.9377 22C10.2668 22.5866 8.7524 24.2876 8.06229 26.3992C7.19965 29.0387 15.5385 41.3565 18.1264 44.8758C20.7143 48.3952 28.7656 50.7414 31.641 53.9675C33.9414 56.5484 34.8999 61.886 35.0916 64.2323C34.804 68.3382 35.0341 77.9578 38.2546 83.5887C47.226 88.9851 59.0537 84.0775 63.8462 80.9492C64.613 77.0388 66.5491 68.2209 68.1594 64.2323C70.1722 59.2465 68.4469 57.1936 72.4725 53.9675C76.3832 52.0905 82.7955 42.2485 85 40L88 26.3992C86.754 27.1813 83.4568 29.6253 80.2363 33.1446C76.2106 37.5438 69.8846 39.3035 66.1465 41.3565C63.1561 42.9988 58.9579 42.0408 57.2326 41.3565C53.0153 41.1609 43.948 40.8872 41.4176 41.3565C38.2546 41.943 34.5165 40.1833 31.641 39.3035Z" fill="#F2F2F2"/>
<path d="M51.4187 22.2464C46.5924 21.0938 43.9233 24.2634 43.1921 25.9922C43.6491 27.529 44.2889 30.8906 43.1921 32.0431C41.821 33.4838 48.128 41.2636 51.4187 39.8229C54.0512 38.6703 56.9031 34.1562 58 32.0431V25.9922C57.8172 25.2238 56.245 23.399 51.4187 22.2464Z" fill="#D6CAC0"/>
<path d="M9 16C8.2 13.6 7.83333 13.5 7 9.5C4.6 8.3 3.66667 10.1667 3 11C3 12.3333 3.6 15 4 17C4.4 19 7 26 10.5 33L17 32.5C15.8333 31 9.8 18.4 9 16Z" fill="#D6CAC0"/>
<path d="M7 7.5C7.4 9.1 6.16667 10.5 5.5 11L5 13.5C4.66667 13.3333 3.3 12.4 2.5 12C1.7 11.6 1 7 0.5 5L6 5.5C6.16667 5.5 6.6 5.9 7 7.5Z" fill="#D6CAC0"/>
<path d="M0 1.49999C0 3.09999 1.33333 8.33333 2 10C2.5 10 3.5 9.49999 3.5 10C4.19583 10.5 5.28221 9.43148 7 7.99998C10 5.49998 8 3.99998 8 4.99998C8 5.79998 7 6.33332 6.5 6.49998L4.5 1.5C3 1.16666 0 -0.100015 0 1.49999Z" fill="#D6CAC0"/>
<path d="M92.315 21.173C93.8725 19.1795 94.2515 19.2081 96.3763 15.7181C99.0396 15.3912 99.2939 17.4626 99.643 18.4711C99.1965 19.7274 97.7381 22.0392 96.6914 23.7897C95.6447 25.5403 90.8507 31.2654 85.2086 36.6891L79.2513 34.0412C80.8529 33.0185 90.7575 23.1666 92.315 21.173Z" fill="#D6CAC0"/>
<path d="M97.0461 13.8336C96.1333 15.2073 96.8266 16.9395 97.2873 17.6338L96.9213 20.1569C97.2912 20.1115 98.8915 19.6898 99.7792 19.5808C100.667 19.4718 102.867 15.3718 104.008 13.6547L98.6581 12.284C98.501 12.2282 97.9588 12.46 97.0461 13.8336Z" fill="#D6CAC0"/>
<path d="M105.651 10.5243C105.115 12.0319 102.106 16.5165 100.92 17.8637C100.449 17.6962 99.6742 16.8902 99.5067 17.3614C98.6836 17.5995 98.0178 16.2288 96.8786 14.3047C94.8891 10.9444 97.2759 10.2008 96.941 11.1431C96.6731 11.8969 97.4368 12.7343 97.8521 13.0588L101.411 9.01728C102.936 9.20552 106.187 9.01664 105.651 10.5243Z" fill="#D6CAC0"/>
</svg>
