<svg width="43" height="113" viewBox="0 0 43 113" fill="none" xmlns="http://www.w3.org/2000/svg">
<path d="M29.5 4C29.6667 4.83333 29.5 6.3 27.5 5.5C23.6085 1.99765 13.0916 0.419824 7.91987 0.0298644C9.45577 3.65376 15.2799 6.51991 18 7.5L19 9C17.8333 9.16667 15.7 9.9 16.5 11.5C18.9 11.5 19.8333 12.8333 20 13.5V18.5V23.5L7 51C6 52.8333 4 57.6 4 62C4 67.5 3 81 4 86C4.8 90 4.33333 99 4 103L0.499998 109C9.16666 110.5 26.8 113.3 28 112.5C29.5 111.5 33.5 104 33.5 100C32.7 95.2 30.5 87.6667 29.5 84.5C28.8333 78.6667 27.9 65.4 29.5 59C31.1 52.6 32.8333 37 33.5 30C33.6667 29 34.3 26.7 35.5 25.5C36.7 24.3 37 21.6667 37 20.5C36.8333 19.8333 36.9 18.5 38.5 18.5C41.7 12.5 42.5 8.33333 42.5 7L29.5 4Z" fill="black"/>
</svg>
