<svg width="40" height="21" viewBox="0 0 40 21" fill="none" xmlns="http://www.w3.org/2000/svg">
<path d="M9 9.50001C5.8 10.3 2.66666 13.5 1.5 15C1.5 14.1667 1.4 13.1 0.999998 15.5C0.599998 17.9 2.5 20.1667 3.5 21C4 21 5.5 20.8 7.5 20C9.5 19.2 10.6667 17 11 16C12.1667 15 15 13 17 13C19 13 24.5 12.6667 27 12.5V21H39.5L38 11C37.3333 9 35.8 4.50001 35 2.50001C34 5.84126e-06 30.5 1.00001 28.5 1.00001C26.9 1.00001 24.1667 2.00001 23 2.50001C19.6667 4.50001 12.2 8.70001 9 9.50001Z" fill="#D6CAC0"/>
</svg>
