<svg width="44" height="36" viewBox="0 0 44 36" fill="none" xmlns="http://www.w3.org/2000/svg">
<path d="M12.6003 11.958C9.35758 11.3541 5.17697 12.9605 3.49201 13.8391C3.83871 13.0813 2.99599 13.8391 2.82932 14.0858C1.46708 16.1018 2.25185 18.9535 2.8145 20.1273C3.26918 20.3353 4.71641 20.7775 6.86793 20.8821C9.01946 20.9867 10.9956 19.4715 11.7148 18.7008C13.1917 18.2768 16.6003 17.6369 18.419 18.469C20.2377 19.301 25.3778 21.2861 27.7205 22.1746L24.1842 29.9041L35.5511 35.1045L38.3474 25.387C38.5732 23.291 39.051 18.561 39.1556 16.4094C39.2864 13.72 35.6876 13.1733 33.8689 12.3412C32.414 11.6755 29.5124 11.4477 28.2434 11.417C24.3802 11.8489 15.8431 12.5618 12.6003 11.958Z" fill="#D6CAC0"/>
</svg>
