<svg width="40" height="49" viewBox="0 0 40 49" fill="none" xmlns="http://www.w3.org/2000/svg">
<mask id="mask0" mask-type="alpha" maskUnits="userSpaceOnUse" x="0" y="0" width="40" height="49">
<path d="M32 6C27.2 3.2 12 0.833333 5 0C6 6 5 2 2.5 7.5C-1.78814e-06 13 -1.78814e-06 28 2 33C4 38 7 38.5 10 41C12.4 43 17.6667 45.5 20 46.5L34.5 49C35.6667 47.8333 38.2 43.7 39 36.5C39.8 29.3 37.3333 22.1667 36 19.5L33.5 10C33.6667 9.16667 33.6 7.2 32 6Z" fill="#F2F2F2"/>
</mask>
<g mask="url(#mask0)">
<path d="M25 16C20.6 9.6 5.16666 3.33333 -2 1L-1 -4L37 4L45 24.5L38 51C34.6667 51.3333 27.6 51.5 26 49.5C24.4 47.5 25.6667 44 26.5 42.5C27 41.6667 28.5 39.4 30.5 37C33 34 32.5 30 32.5 26.5C32.9 24.5 32.3333 21.3333 32 20C30.5 19 27 16.8 25 16Z" fill="#DADADA"/>
</g>
</svg>
